<svg width="16" height="16" viewBox="0 0 16 15" fill="none" xmlns="http://www.w3.org/2000/svg">
            <path d="M13.3035 0.0979062C14.6034 -0.249282 15.8059 0.910778 15.5057 2.2223L13.642 10.3648C13.4205 11.3323 12.4529 11.9338 11.4873 11.704L8.66907 11.0336C6.76824 10.5814 5.26417 9.1305 4.74387 7.24718L3.97245 4.45492C3.70815 3.49823 4.27441 2.50952 5.23332 2.2534L13.3035 0.0979062Z" fill="currentColor"></path>
            <path d="M0.842682 13.6347C0.704592 14.5469 1.5083 15.3224 2.41499 15.1518L11.032 13.5311C11.2688 13.4865 11.2769 13.1503 11.0425 13.0944L7.48645 12.2466C5.58713 11.7938 4.08441 10.3438 3.56406 8.46191L2.59069 4.94157C2.52648 4.70934 2.19076 4.72942 2.1547 4.96766L0.842682 13.6347Z" fill="currentColor"></path>
          </svg>